<?xml version="1.0" encoding="utf-8"?>
<!-- Generator: Adobe Illustrator 24.3.0, SVG Export Plug-In . SVG Version: 6.00 Build 0)  -->
<svg version="1.1" id="Layer_1" xmlns="http://www.w3.org/2000/svg" xmlns:xlink="http://www.w3.org/1999/xlink" x="0px" y="0px"
	 viewBox="0 0 200 71.6" style="enable-background:new 0 0 200 71.6;" xml:space="preserve">
<style type="text/css">
	.st0{fill:#D3D3D3;}
	.st1{fill:#FFFFFF;}
</style>
<g>
	<g>
		<polygon class="st0" points="74.5,61.8 68.4,61.8 68.4,56.9 66.2,56.9 66.2,68.7 68.4,68.7 68.4,63.7 74.5,63.7 74.5,68.7 
			76.7,68.7 76.7,56.9 74.5,56.9 		"/>
		<path class="st0" d="M92.5,58.5c-0.6-0.5-1.2-1-2-1.3c-0.8-0.3-1.6-0.5-2.5-0.5c-0.9,0-1.8,0.2-2.5,0.5s-1.4,0.7-2,1.3
			c-0.6,0.5-1,1.2-1.3,1.9c-0.3,0.7-0.5,1.5-0.5,2.4c0,0.9,0.2,1.7,0.5,2.4c0.3,0.7,0.8,1.4,1.3,1.9c0.6,0.5,1.2,1,2,1.3
			c0.8,0.3,1.6,0.5,2.5,0.5c0.9,0,1.7-0.2,2.5-0.5c0.8-0.3,1.4-0.7,2-1.3c0.6-0.5,1-1.2,1.3-1.9c0.3-0.7,0.5-1.5,0.5-2.4
			c0-0.9-0.2-1.7-0.5-2.4C93.5,59.7,93,59,92.5,58.5z M91.7,64.5c-0.2,0.5-0.5,0.9-0.9,1.3c-0.4,0.4-0.8,0.7-1.3,0.9
			c-0.5,0.2-1.1,0.3-1.7,0.3s-1.1-0.1-1.6-0.3c-0.5-0.2-0.9-0.5-1.3-0.9c-0.4-0.4-0.7-0.8-0.9-1.3c-0.2-0.5-0.3-1.1-0.3-1.7
			c0-0.6,0.1-1.2,0.3-1.7c0.2-0.5,0.5-0.9,0.9-1.3c0.4-0.4,0.8-0.7,1.3-0.9c0.5-0.2,1-0.3,1.6-0.3s1.1,0.1,1.7,0.3
			c0.5,0.2,0.9,0.5,1.3,0.9c0.4,0.4,0.7,0.8,0.9,1.3c0.2,0.5,0.3,1.1,0.3,1.7C92.1,63.4,92,64,91.7,64.5z"/>
		<polygon class="st0" points="97.4,58.8 101.3,58.8 101.3,68.7 103.5,68.7 103.5,58.8 107.4,58.8 107.4,56.9 97.4,56.9 		"/>
		<polygon class="st0" points="113.8,63.6 119.5,63.6 119.5,61.8 113.8,61.8 113.8,58.8 120.2,58.8 120.2,56.9 111.6,56.9 
			111.6,68.7 120.4,68.7 120.4,66.9 113.8,66.9 		"/>
		<polygon class="st0" points="127.6,66.9 127.6,56.9 125.4,56.9 125.4,68.7 133.8,68.7 133.8,66.9 		"/>
	</g>
	<g>
		<path class="st1" d="M25.6,3.6h-3.4H22h-3v0.5c0,0,0.2,0,0.5,0c0.7,0,1.3,0.3,1.8,0.9C21.8,5.7,22,6.4,22,7.3v13.1H7V7.3
			c0-0.9,0.3-1.6,0.8-2.2c0.5-0.6,1.1-0.9,1.8-0.9c0.3,0,0.5,0,0.5,0V3.6H7H6.8H3.4H3.3h-3v0.5h0.5c0.7,0,1.3,0.3,1.8,0.9
			C3,5.7,3.3,6.4,3.3,7.3v27.6c0,0.9-0.3,1.6-0.8,2.2c-0.5,0.6-1.1,0.9-1.8,0.9H0.2v0.5h3h0.1h3.4H7h3v-0.5c0,0-0.2,0-0.5,0
			c-0.7,0-1.3-0.3-1.8-0.9C7.2,36.5,7,35.8,7,34.9V22.1H22v12.8c0,0.9-0.3,1.6-0.7,2.2c-0.5,0.6-1.1,0.9-1.8,0.9c-0.3,0-0.5,0-0.5,0
			v0.5h3h0.1h3.4h0.1h3v-0.5h-0.5c-0.7,0-1.3-0.3-1.8-0.9c-0.5-0.6-0.7-1.4-0.8-2.2V7.3c0-0.9,0.3-1.6,0.8-2.2
			c0.5-0.6,1.1-0.9,1.8-0.9h0.5V3.6h-3H25.6z"/>
		<path class="st1" d="M55.9,5.2C53.7,3.7,51.1,3,48.2,3c-2.9,0-5.4,0.8-7.6,2.2c-2.2,1.5-3.9,3.6-5.1,6.3c-1.2,2.7-1.8,5.9-1.8,9.6
			c0,3.7,0.6,6.9,1.8,9.6c1.2,2.7,2.9,4.8,5.1,6.3c2.2,1.5,4.7,2.2,7.6,2.2c2.9,0,5.5-0.7,7.7-2.2c2.2-1.5,3.9-3.6,5.1-6.3
			c1.2-2.7,1.8-5.9,1.8-9.6c0-3.7-0.6-6.8-1.8-9.6C59.8,8.8,58.1,6.7,55.9,5.2z M57.3,29.8c-0.9,2.5-2.1,4.4-3.6,5.7
			c-1.6,1.4-3.4,2-5.5,2c-2.1,0-3.9-0.7-5.5-2c-1.6-1.4-2.8-3.3-3.7-5.7c-0.9-2.5-1.3-5.4-1.3-8.7s0.4-6.2,1.3-8.7
			c0.9-2.5,2.1-4.4,3.7-5.7c1.6-1.4,3.4-2,5.5-2c2.1,0,4,0.7,5.5,2c1.6,1.4,2.8,3.3,3.6,5.7c0.9,2.5,1.3,5.4,1.3,8.7
			S58.2,27.3,57.3,29.8z"/>
		<path class="st1" d="M89.8,36.3c-0.5-0.5-1-1.2-1.6-2c-0.4-0.6-0.8-1.3-1.4-2.1c-0.5-0.9-1-1.7-1.5-2.6c-0.5-0.9-0.9-1.6-1.2-2.2
			c-0.3-0.6-0.5-0.9-0.5-0.9c-0.4-0.7-0.9-1.5-1.5-2.2c-0.6-0.8-1.2-1.3-1.7-1.5c1.3-0.1,2.5-0.6,3.5-1.5c1-0.9,1.8-2.1,2.3-3.6
			C86.7,16,87,14.6,87,13c0-1.6-0.2-2.9-0.6-4.1c-0.4-1.2-1-2.1-1.7-2.9c-0.7-0.8-1.6-1.4-2.6-1.8c-1-0.4-2.1-0.6-3.3-0.6h-4.9h-0.5
			h-3h-0.1h-3v0.5h0.5c0.7,0,1.3,0.3,1.8,0.9c0.5,0.6,0.7,1.4,0.8,2.2v27.6c0,0.9-0.3,1.6-0.8,2.2c-0.5,0.6-1.1,0.9-1.8,0.9h-0.5
			v0.5h3h0.1h3.4h0.1h3v-0.5c-0.3,0-0.5,0-0.5,0c-0.7,0-1.3-0.3-1.8-0.9c-0.5-0.6-0.7-1.4-0.7-2.2V5.4c0.1,0,0.3,0,0.7,0
			c0.5,0,1,0,1.7,0c0.7,0,1.3,0,1.9,0.1c1.4,0.1,2.6,0.7,3.5,2c0.9,1.3,1.3,3.1,1.4,5.4c0,0.5,0,1,0,1.5c0,0.5-0.1,0.9-0.2,1.2
			c-0.3,1.5-0.8,2.6-1.4,3.4c-0.6,0.8-1.4,1.3-2.1,1.5c-0.8,0.3-1.5,0.4-2.2,0.5c-0.5,0-0.9,0-1.2,0c-0.4,0-0.5,0-0.6,0v0.5
			c0.7,0,1.3,0.4,1.8,1c0.6,0.6,1.1,1.4,1.5,2.3c0.1,0.2,0.3,0.5,0.6,1.1c0.3,0.6,0.6,1.3,1,2.1c0.4,0.8,0.8,1.6,1.2,2.4
			c0.4,0.8,0.8,1.5,1.1,2.2c0.3,0.6,0.5,1.1,0.7,1.3c0.5,0.8,1.1,1.6,1.8,2.3c0.7,0.7,1.6,1.3,2.5,1.7c1,0.4,2.1,0.6,3.4,0.6h2.8
			v-0.5c-0.7,0-1.4-0.2-2-0.5C90.9,37.3,90.3,36.8,89.8,36.3z"/>
		<path class="st1" d="M101.3,3.6h-3.4h-0.1h-3v0.5h0.5c0.7,0,1.3,0.3,1.8,0.9c0.5,0.6,0.7,1.4,0.8,2.2v27.6c0,0.9-0.3,1.6-0.8,2.2
			c-0.5,0.6-1.1,0.9-1.8,0.9h-0.5v0.5h3h0.1h3.4h0.1h3v-0.5c0,0-0.2,0-0.5,0c-0.7,0-1.3-0.3-1.8-0.9c-0.5-0.6-0.7-1.4-0.8-2.2V7.3
			c0-0.9,0.3-1.6,0.8-2.2c0.5-0.6,1.1-0.9,1.8-0.9c0.3,0,0.5,0,0.5,0V3.6h-3H101.3z"/>
		<path class="st1" d="M129.6,34.9c-1,1.3-2.3,1.9-3.9,1.9h-11.1l16.1-33.5V3c-0.2,0.1-0.5,0.2-0.9,0.3c-0.5,0.1-1,0.2-1.6,0.3
			c-0.6,0.1-1.2,0.1-1.7,0.1h-11.5c-0.6,0-1.2,0-1.8-0.2c-0.7-0.1-1.3-0.2-1.8-0.3c-0.5-0.1-0.9-0.3-1.2-0.4v0.9v0.5v1v0.2v4.5h0.4
			V9c0-1.1,0.3-1.9,0.8-2.6c0.5-0.7,1.2-1,2.1-1.1h12l-15.9,32.8v0.5h2.6h1.5h11h5.7h0.2l1.3-8.5h-0.4
			C131.4,32,130.7,33.7,129.6,34.9z"/>
		<path class="st1" d="M158.8,5.2C156.6,3.7,154,3,151,3c-2.9,0-5.4,0.8-7.6,2.2c-2.2,1.5-3.9,3.6-5.1,6.3c-1.2,2.7-1.8,5.9-1.8,9.6
			c0,3.7,0.6,6.9,1.8,9.6c1.2,2.7,2.9,4.8,5.1,6.3c2.2,1.5,4.7,2.2,7.6,2.2c2.9,0,5.5-0.7,7.7-2.2c2.2-1.5,3.9-3.6,5.1-6.3
			c1.2-2.7,1.8-5.9,1.8-9.6c0-3.7-0.6-6.8-1.8-9.6C162.7,8.8,161,6.7,158.8,5.2z M160.2,29.8c-0.9,2.5-2.1,4.4-3.6,5.7
			c-1.6,1.4-3.4,2-5.5,2c-2.1,0-3.9-0.7-5.5-2c-1.6-1.4-2.8-3.3-3.7-5.7c-0.9-2.5-1.3-5.4-1.3-8.7s0.4-6.2,1.3-8.7
			c0.9-2.5,2.1-4.4,3.7-5.7c1.6-1.4,3.4-2,5.5-2c2.1,0,4,0.7,5.5,2c1.6,1.4,2.8,3.3,3.6,5.7c0.9,2.5,1.3,5.4,1.3,8.7
			S161.1,27.3,160.2,29.8z"/>
		<path class="st1" d="M196.6,3.6h-0.1h-2.8h-0.1h-3.2v0.5c0,0,0.3,0,0.8,0c0.7,0,1.3,0.3,1.7,0.9c0.5,0.6,0.7,1.3,0.7,2.2v22.9
			l-21-27.2h-0.4c0.3,2.4,0.4,4.5,0.4,6.2V35c0,0.8-0.2,1.5-0.7,2.1c-0.5,0.6-1,0.9-1.7,0.9c0,0-0.3,0-0.7,0v0.5h3.2h0.1h2.8h0.1
			h3.2v-0.5c-0.5,0-0.7,0-0.7,0c-0.7,0-1.2-0.3-1.7-0.9c-0.5-0.6-0.7-1.3-0.7-2.1h0l0-23l21,27.2h0.4c-0.1-1.2-0.2-2.2-0.3-3.2
			c-0.1-1-0.1-2-0.1-3.2V7.2c0-0.9,0.3-1.6,0.7-2.2c0.5-0.6,1-0.9,1.7-0.9h0.7V3.6H196.6z"/>
	</g>
</g>
</svg>
