<?xml version="1.0" encoding="utf-8"?>
<!-- Generator: Adobe Illustrator 24.3.0, SVG Export Plug-In . SVG Version: 6.00 Build 0)  -->
<svg version="1.1" id="Layer_1" xmlns="http://www.w3.org/2000/svg" xmlns:xlink="http://www.w3.org/1999/xlink" x="0px" y="0px"
	 viewBox="0 0 200 71.6" style="enable-background:new 0 0 200 71.6;" xml:space="preserve">
<style type="text/css">
	.st0{fill:#444444;}
</style>
<g>
	<g>
		<polygon class="st0" points="74.5,61.7 68.4,61.7 68.4,56.8 66.2,56.8 66.2,68.6 68.4,68.6 68.4,63.6 74.5,63.6 74.5,68.6 
			76.7,68.6 76.7,56.8 74.5,56.8 		"/>
		<path class="st0" d="M92.5,58.4c-0.6-0.5-1.2-1-2-1.3s-1.6-0.5-2.5-0.5s-1.8,0.2-2.5,0.5s-1.4,0.7-2,1.3c-0.6,0.5-1,1.2-1.3,1.9
			s-0.5,1.5-0.5,2.4s0.2,1.7,0.5,2.4c0.3,0.7,0.8,1.4,1.3,1.9c0.6,0.5,1.2,1,2,1.3s1.6,0.5,2.5,0.5s1.7-0.2,2.5-0.5s1.4-0.7,2-1.3
			c0.6-0.5,1-1.2,1.3-1.9c0.3-0.7,0.5-1.5,0.5-2.4s-0.2-1.7-0.5-2.4S93,58.9,92.5,58.4z M91.7,64.4c-0.2,0.5-0.5,0.9-0.9,1.3
			s-0.8,0.7-1.3,0.9C89,66.8,88.4,67,87.8,67s-1.1-0.1-1.6-0.3c-0.5-0.2-0.9-0.5-1.3-0.9s-0.7-0.8-0.9-1.3c-0.2-0.5-0.3-1.1-0.3-1.7
			c0-0.6,0.1-1.2,0.3-1.7c0.2-0.5,0.5-0.9,0.9-1.3c0.4-0.4,0.8-0.7,1.3-0.9s1-0.3,1.6-0.3s1.1,0.1,1.7,0.3c0.5,0.2,0.9,0.5,1.3,0.9
			s0.7,0.8,0.9,1.3c0.2,0.5,0.3,1.1,0.3,1.7C92.1,63.3,92,63.9,91.7,64.4z"/>
		<polygon class="st0" points="97.4,58.7 101.3,58.7 101.3,68.6 103.5,68.6 103.5,58.7 107.4,58.7 107.4,56.8 97.4,56.8 		"/>
		<polygon class="st0" points="113.8,63.5 119.5,63.5 119.5,61.7 113.8,61.7 113.8,58.7 120.2,58.7 120.2,56.8 111.6,56.8 
			111.6,68.6 120.4,68.6 120.4,66.8 113.8,66.8 		"/>
		<polygon class="st0" points="127.6,66.8 127.6,56.8 125.4,56.8 125.4,68.6 133.8,68.6 133.8,66.8 		"/>
	</g>
	<g>
		<path d="M25.6,3.5h-3.4H22h-3V4c0,0,0.2,0,0.5,0c0.7,0,1.3,0.3,1.8,0.9C21.8,5.6,22,6.3,22,7.2v13.1H7V7.2C7,6.3,7.3,5.6,7.8,5
			c0.5-0.6,1.1-0.9,1.8-0.9c0.3,0,0.5,0,0.5,0V3.5H7H6.8H3.4H3.3h-3V4h0.5c0.7,0,1.3,0.3,1.8,0.9C3,5.6,3.3,6.3,3.3,7.2v27.6
			c0,0.9-0.3,1.6-0.8,2.2c-0.5,0.6-1.1,0.9-1.8,0.9H0.2v0.5h3h0.1h3.4H7h3v-0.5c0,0-0.2,0-0.5,0c-0.7,0-1.3-0.3-1.8-0.9
			S7,35.7,7,34.8V22h15v12.8c0,0.9-0.3,1.6-0.7,2.2c-0.5,0.6-1.1,0.9-1.8,0.9c-0.3,0-0.5,0-0.5,0v0.5h3h0.1h3.4h0.1h3v-0.5h-0.5
			c-0.7,0-1.3-0.3-1.8-0.9c-0.5-0.6-0.7-1.4-0.8-2.2V7.2c0-0.9,0.3-1.6,0.8-2.2c0.5-0.6,1.1-0.9,1.8-0.9h0.5V3.5H25.6L25.6,3.5z"/>
		<path d="M55.9,5.1c-2.2-1.5-4.8-2.2-7.7-2.2c-2.9,0-5.4,0.8-7.6,2.2c-2.2,1.5-3.9,3.6-5.1,6.3c-1.2,2.7-1.8,5.9-1.8,9.6
			s0.6,6.9,1.8,9.6s2.9,4.8,5.1,6.3c2.2,1.5,4.7,2.2,7.6,2.2c2.9,0,5.5-0.7,7.7-2.2s3.9-3.6,5.1-6.3c1.2-2.7,1.8-5.9,1.8-9.6
			s-0.6-6.8-1.8-9.6C59.8,8.7,58.1,6.6,55.9,5.1z M57.3,29.7c-0.9,2.5-2.1,4.4-3.6,5.7c-1.6,1.4-3.4,2-5.5,2s-3.9-0.7-5.5-2
			c-1.6-1.4-2.8-3.3-3.7-5.7c-0.9-2.5-1.3-5.4-1.3-8.7s0.4-6.2,1.3-8.7c0.9-2.5,2.1-4.4,3.7-5.7c1.6-1.4,3.4-2,5.5-2s4,0.7,5.5,2
			c1.6,1.4,2.8,3.3,3.6,5.7c0.9,2.5,1.3,5.4,1.3,8.7S58.2,27.2,57.3,29.7z"/>
		<path d="M89.8,36.2c-0.5-0.5-1-1.2-1.6-2c-0.4-0.6-0.8-1.3-1.4-2.1c-0.5-0.9-1-1.7-1.5-2.6s-0.9-1.6-1.2-2.2
			c-0.3-0.6-0.5-0.9-0.5-0.9c-0.4-0.7-0.9-1.5-1.5-2.2c-0.6-0.8-1.2-1.3-1.7-1.5c1.3-0.1,2.5-0.6,3.5-1.5s1.8-2.1,2.3-3.6
			c0.5-1.7,0.8-3.1,0.8-4.7s-0.2-2.9-0.6-4.1s-1-2.1-1.7-2.9s-1.6-1.4-2.6-1.8c-1-0.4-2.1-0.6-3.3-0.6h-4.9h-0.5h-3h-0.1h-3V4h0.5
			c0.7,0,1.3,0.3,1.8,0.9c0.5,0.6,0.7,1.4,0.8,2.2v27.6c0,0.9-0.3,1.6-0.8,2.2c-0.5,0.6-1.1,0.9-1.8,0.9h-0.5v0.5h3h0.1h3.4h0.1h3
			v-0.5c-0.3,0-0.5,0-0.5,0c-0.7,0-1.3-0.3-1.8-0.9c-0.5-0.6-0.7-1.4-0.7-2.2V5.3c0.1,0,0.3,0,0.7,0c0.5,0,1,0,1.7,0s1.3,0,1.9,0.1
			c1.4,0.1,2.6,0.7,3.5,2s1.3,3.1,1.4,5.4c0,0.5,0,1,0,1.5s-0.1,0.9-0.2,1.2c-0.3,1.5-0.8,2.6-1.4,3.4c-0.6,0.8-1.4,1.3-2.1,1.5
			c-0.8,0.3-1.5,0.4-2.2,0.5c-0.5,0-0.9,0-1.2,0c-0.4,0-0.5,0-0.6,0v0.5c0.7,0,1.3,0.4,1.8,1c0.6,0.6,1.1,1.4,1.5,2.3
			c0.1,0.2,0.3,0.5,0.6,1.1c0.3,0.6,0.6,1.3,1,2.1c0.4,0.8,0.8,1.6,1.2,2.4c0.4,0.8,0.8,1.5,1.1,2.2c0.3,0.6,0.5,1.1,0.7,1.3
			c0.5,0.8,1.1,1.6,1.8,2.3c0.7,0.7,1.6,1.3,2.5,1.7c1,0.4,2.1,0.6,3.4,0.6h2.8v-0.5c-0.7,0-1.4-0.2-2-0.5
			C90.9,37.2,90.3,36.7,89.8,36.2z"/>
		<path d="M101.3,3.5h-3.4h-0.1h-3V4h0.5c0.7,0,1.3,0.3,1.8,0.9c0.5,0.6,0.7,1.4,0.8,2.2v27.6c0,0.9-0.3,1.6-0.8,2.2
			c-0.5,0.6-1.1,0.9-1.8,0.9h-0.5v0.5h3h0.1h3.4h0.1h3v-0.5c0,0-0.2,0-0.5,0c-0.7,0-1.3-0.3-1.8-0.9c-0.5-0.6-0.7-1.4-0.8-2.2V7.2
			c0-0.9,0.3-1.6,0.8-2.2c0.5-0.6,1.1-0.9,1.8-0.9c0.3,0,0.5,0,0.5,0V3.5H101.3L101.3,3.5z"/>
		<path d="M129.6,34.8c-1,1.3-2.3,1.9-3.9,1.9h-11.1l16.1-33.5V2.9c-0.2,0.1-0.5,0.2-0.9,0.3c-0.5,0.1-1,0.2-1.6,0.3
			c-0.6,0.1-1.2,0.1-1.7,0.1H115c-0.6,0-1.2,0-1.8-0.2c-0.7-0.1-1.3-0.2-1.8-0.3s-0.9-0.3-1.2-0.4v0.9v0.5v1v0.2v4.5h0.4V8.9
			c0-1.1,0.3-1.9,0.8-2.6s1.2-1,2.1-1.1h12L109.6,38v0.5h2.6h1.5h11h5.7h0.2l1.3-8.5h-0.4C131.3,31.9,130.6,33.6,129.6,34.8z"/>
		<path d="M158.8,5.1c-2.2-1.5-4.8-2.2-7.8-2.2c-2.9,0-5.4,0.8-7.6,2.2c-2.2,1.5-3.9,3.6-5.1,6.3c-1.2,2.7-1.8,5.9-1.8,9.6
			s0.6,6.9,1.8,9.6s2.9,4.8,5.1,6.3c2.2,1.5,4.7,2.2,7.6,2.2c2.9,0,5.5-0.7,7.7-2.2s3.9-3.6,5.1-6.3c1.2-2.7,1.8-5.9,1.8-9.6
			s-0.6-6.8-1.8-9.6C162.6,8.7,160.9,6.6,158.8,5.1z M160.1,29.7c-0.9,2.5-2.1,4.4-3.6,5.7c-1.6,1.4-3.4,2-5.5,2s-3.9-0.7-5.5-2
			c-1.6-1.4-2.8-3.3-3.7-5.7c-0.9-2.5-1.3-5.4-1.3-8.7s0.4-6.2,1.3-8.7c0.9-2.5,2.1-4.4,3.7-5.7c1.6-1.4,3.4-2,5.5-2s4,0.7,5.5,2
			c1.6,1.4,2.8,3.3,3.6,5.7c0.9,2.5,1.3,5.4,1.3,8.7S161.1,27.2,160.1,29.7z"/>
		<path d="M196.6,3.5h-0.1h-2.8h-0.1h-3.2V4c0,0,0.3,0,0.8,0c0.7,0,1.3,0.3,1.7,0.9c0.5,0.6,0.7,1.3,0.7,2.2V30l-21-27.2h-0.4
			c0.3,2.4,0.4,4.5,0.4,6.2v25.9c0,0.8-0.2,1.5-0.7,2.1s-1,0.9-1.7,0.9c0,0-0.3,0-0.7,0v0.5h3.2h0.1h2.8h0.1h3.2v-0.5
			c-0.5,0-0.7,0-0.7,0c-0.7,0-1.2-0.3-1.7-0.9c-0.5-0.6-0.7-1.3-0.7-2.1l0,0v-23l21,27.2h0.4c-0.1-1.2-0.2-2.2-0.3-3.2
			s-0.1-2-0.1-3.2V7.1c0-0.9,0.3-1.6,0.7-2.2c0.5-0.6,1-0.9,1.7-0.9h0.7V3.5H196.6z"/>
	</g>
</g>
</svg>
