<?xml version="1.0" encoding="utf-8"?>
<!-- Generator: Adobe Illustrator 24.3.0, SVG Export Plug-In . SVG Version: 6.00 Build 0)  -->
<svg version="1.1" id="Layer_1" xmlns="http://www.w3.org/2000/svg" xmlns:xlink="http://www.w3.org/1999/xlink" x="0px" y="0px"
	 viewBox="0 0 32 32" style="enable-background:new 0 0 32 32;" xml:space="preserve">
<g>
	<path d="M28,25.6c-0.1-0.1-0.2-0.2-0.3-0.3c-3.1-3.1-6.2-6.2-9.3-9.3c3.1-3.1,6.2-6.2,9.4-9.4c0.1-0.1,0.2-0.2,0.3-0.3
		c0.4-0.5,0.5-1.1,0.3-1.8c0-0.1-0.1-0.2-0.1-0.3C28,4.1,27.9,4,27.7,3.8c-1.1-0.5-1.6-0.4-2.5,0.5c-3.1,3.1-6.2,6.2-9.3,9.3
		c-3.1-3.1-6.2-6.2-9.3-9.3c-0.9-0.9-1.3-1-2.5-0.5C4.1,4,4,4.1,3.8,4.3c0,0.1-0.1,0.2-0.1,0.3C3.4,5.2,3.5,5.8,4,6.3
		c0.1,0.1,0.2,0.2,0.3,0.3c3.1,3.1,6.2,6.2,9.4,9.4c-3.1,3.1-6.2,6.2-9.3,9.3c-0.1,0.1-0.2,0.2-0.3,0.3c-0.5,0.6-0.6,1.4-0.2,2.1
		c0.4,0.6,1.2,0.9,1.9,0.7c0.3-0.1,0.6-0.4,0.9-0.6c3.1-3.1,6.3-6.3,9.4-9.4c3.1,3.1,6.3,6.3,9.4,9.4c0.2,0.2,0.6,0.5,0.9,0.6
		c0.7,0.3,1.5,0,1.9-0.7C28.6,27,28.5,26.2,28,25.6z"/>
</g>
</svg>
