<?xml version="1.0" encoding="utf-8"?>
<!-- Generator: Adobe Illustrator 24.3.0, SVG Export Plug-In . SVG Version: 6.00 Build 0)  -->
<svg version="1.1" id="Layer_1" xmlns="http://www.w3.org/2000/svg" xmlns:xlink="http://www.w3.org/1999/xlink" x="0px" y="0px"
	 viewBox="0 0 32 32" style="enable-background:new 0 0 32 32;" xml:space="preserve">
<g>
	<path d="M29.8,14.4c-9.2,0-18.4,0-27.7,0c-0.2,0-0.3,0-0.5,0C1,14.5,0.5,15,0.3,15.6c-0.2,0.6,0.1,1.3,0.6,1.6
		c0.4,0.3,0.8,0.3,1.2,0.3c9.2,0,18.3,0,27.5,0c0.2,0,0.4,0,0.6,0c0.4,0,0.9-0.1,1.2-0.5c0.2-0.2,0.3-0.5,0.5-0.8c0-0.2,0-0.4,0-0.6
		C31.4,14.7,30.8,14.4,29.8,14.4z"/>
	<path d="M29.8,25.4c-9.2,0-18.4,0-27.6,0c-0.1,0-0.3,0-0.4,0c-0.8,0.1-1.5,0.7-1.5,1.5c0,0.9,0.7,1.6,1.7,1.6c9.4,0,18.7,0,28.1,0
		c0.1,0,0.2,0,0.4,0c0.7-0.1,1.1-0.6,1.4-1.3c0-0.2,0-0.4,0-0.6C31.4,25.7,30.7,25.4,29.8,25.4z"/>
	<path d="M29.8,3.4c-9.2,0-18.4,0-27.7,0c-0.1,0-0.2,0-0.4,0C1,3.4,0.4,3.9,0.3,4.7C0.1,5.3,0.5,6.1,1.1,6.4c0.3,0.1,0.7,0.2,1,0.2
		c9.3,0,18.6,0,27.8,0c0.1,0,0.2,0,0.4,0c0.6-0.1,1.1-0.4,1.3-1c0-0.1,0.1-0.2,0.1-0.3c0-0.2,0-0.4,0-0.6
		C31.3,3.6,30.9,3.4,29.8,3.4z"/>
</g>
</svg>
